<?xml version="1.0" encoding="UTF-8"?><svg id="Layer_1" xmlns="http://www.w3.org/2000/svg" viewBox="0 0 291.66 75.55"><defs><style>.cls-1{fill:#f90032;}.cls-1,.cls-2{stroke-width:0px;}.cls-2{fill:#727272;}</style></defs><path class="cls-1" d="m54.76,27.48c0,3.5.01,7.01,0,10.51-.05,10.57-7.85,22.65-20.09,27.01-1.16.41-2.26.36-3.35-.09-11.06-4.6-17.58-12.85-19.72-24.61-.06-.36-.04-.73-.04-1.1,0-8.05-.01-16.11,0-24.16,0-2.1.53-2.81,2.62-3.19,6.39-1.17,12.84-1.58,19.33-1.57,6.29,0,12.52.45,18.7,1.59,2.01.37,2.62,1.2,2.62,3.22,0,4.13,0,8.26,0,12.39-.03,0-.05,0-.08,0Zm-2.22,14.83c.14,0,.28,0,.42.01.11-.72.31-1.43.32-2.15.05-8.36.06-16.72.12-25.08,0-1.23-.45-1.76-1.68-1.96-5.73-.91-11.48-1.52-17.29-1.53-.98,0-1.33.32-1.56,1.25-2.16,8.64,3.17,18.19,8.99,22.99.84-6.35,4.66-11.58,8.75-12.07-3.03,6.58-.23,12.52,1.92,18.54Zm-29.12,1.72c2.63-3.31,3.15-6.97,1.89-11.25-2.18-7.39-1.97-14.42,3.16-20.7.05-.06,0-.19,0-.41-4.85.22-9.65.77-14.42,1.56-1.02.17-1.22,1-1.22,1.91.01,7.89,0,15.78.04,23.67.01,2.22.48,3.87,1.17,4.97,1.65-2.15,3.24-4.27,3.59-7.14.34-2.72-.1-5.36-.38-8.35,6.18,3.71,7.27,9.13,6.15,15.74Zm2.49,3.68c.72,2.18.34,3.96-.21,5.7-.46,1.49-1.01,2.95-1.62,4.38-.35.83-.18,1.32.53,1.84,2.29,1.67,4.75,2.99,7.37,4.06.9.37,1.72.25,2.57-.09,2.67-1.07,5.18-2.44,7.47-4.2,1.63-1.26,1.68-1.29.45-2.91-1.14-1.51-1.44-3.19-1.36-5.01.02-.37.27-.76-.06-1.23-2.71,2.09-2.38,4.86-1.9,7.75-.85-.41-1.12-1.12-1.44-1.75-1-1.92-.5-3.82-.01-5.77,1.15-4.51-.28-8.39-3.7-10.33,1.07,5.95-1.07,11.98-4.87,13.45.37-2.56-.75-4.34-3.22-5.89Z"/><path class="cls-2" d="m67.84,59.28h-1.25v-12.96h-1.34v-.76h2.94v6.73h.03c.26-.45.6-.78,1.02-.99.42-.21.87-.32,1.37-.32.52,0,.99.1,1.42.3.43.2.8.49,1.12.85.31.37.56.81.73,1.34s.26,1.1.26,1.74c0,.67-.1,1.28-.29,1.81-.19.53-.45.99-.78,1.36s-.71.66-1.14.86-.89.3-1.37.3-.93-.11-1.33-.33c-.41-.22-.74-.58-1.01-1.07h-.05l-.34,1.14Zm4.55-4.04c0-.72-.05-1.3-.14-1.76-.1-.46-.23-.81-.41-1.08s-.38-.44-.63-.53-.51-.14-.81-.14c-.4,0-.74.08-1.02.25-.28.16-.51.39-.68.7-.17.3-.3.66-.38,1.09-.08.42-.12.9-.12,1.43s.04,1.01.11,1.4.17.72.29.99c.12.27.26.48.42.64.16.16.32.28.48.37.16.08.33.14.49.17.16.03.31.04.44.04.28,0,.55-.05.79-.14s.45-.27.63-.53c.17-.26.31-.62.41-1.08s.15-1.06.15-1.8Z"/><path class="cls-2" d="m90.75,58.52h1.34v.76h-4.28v-.76h1.34v-6.53h-1.34v-.76h2.94v7.28Zm-.8-9.95c-.15,0-.3-.03-.42-.08-.13-.05-.24-.13-.34-.23-.1-.1-.17-.22-.23-.35s-.08-.29-.08-.46.03-.31.09-.45c.06-.14.13-.26.23-.36s.21-.18.34-.24c.13-.06.27-.08.42-.08s.29.03.42.08c.13.05.24.13.34.23.1.1.17.22.23.35s.08.29.08.46-.03.32-.08.46c-.06.14-.13.26-.23.35-.09.1-.21.17-.34.23-.13.06-.27.08-.42.08Z"/><path class="cls-2" d="m111.1,57.39c-.16.73-.42,1.28-.79,1.63-.37.35-.87.52-1.52.52-.34,0-.64-.04-.91-.13-.27-.09-.5-.23-.69-.42-.19-.19-.34-.44-.44-.74-.1-.3-.15-.66-.15-1.09v-5.17h-1.34v-.76h1.34v-1.83l1.6-.28v2.11h2.32v.76h-2.32v5.38c0,.26.02.47.07.63s.11.29.19.39c.08.09.18.16.29.19.11.03.24.05.38.05.19,0,.35-.03.49-.09.14-.06.26-.15.36-.27.1-.12.19-.28.27-.46.07-.18.14-.39.21-.63.11.02.22.04.33.07.11.03.21.08.31.13Z"/><path class="cls-2" d="m131.51,56.66c-.2.95-.56,1.67-1.1,2.15-.54.48-1.23.73-2.09.73-.59,0-1.13-.11-1.6-.33-.47-.22-.87-.53-1.2-.91-.33-.38-.58-.83-.76-1.34-.18-.51-.27-1.05-.27-1.62s.09-1.16.28-1.69c.19-.53.45-.99.8-1.38s.76-.7,1.24-.94c.48-.23,1.02-.34,1.62-.34.42,0,.81.06,1.16.17.35.12.66.27.91.47.25.19.45.42.6.68.14.26.21.53.21.81,0,.2-.03.37-.1.51-.07.14-.15.24-.24.32-.1.08-.21.14-.33.18s-.23.06-.34.06c-.29,0-.52-.1-.69-.29-.17-.2-.25-.43-.25-.7,0-.16.04-.34.12-.53s.2-.37.35-.53c-.2-.17-.43-.28-.7-.34-.27-.06-.51-.09-.73-.09-.28,0-.55.04-.8.12-.26.08-.49.24-.69.5-.2.25-.36.62-.48,1.09-.12.47-.18,1.1-.18,1.89,0,.73.05,1.32.16,1.77.11.45.26.81.45,1.06.19.26.42.43.68.52s.55.14.86.14c.28,0,.54-.04.79-.12s.48-.21.68-.39.39-.42.54-.71c.16-.29.28-.65.38-1.08.12.01.24.03.35.07.12.03.23.07.34.11Z"/><path class="cls-2" d="m152.84,59.28c-.25.05-.48.08-.7.09-.21.01-.38.02-.51.02-.31,0-.57-.03-.78-.08s-.37-.13-.49-.23-.21-.22-.26-.37-.09-.31-.1-.48h-.04c-.17.24-.35.45-.53.62-.19.17-.39.31-.6.41s-.42.17-.64.22-.44.07-.66.07c-.36,0-.69-.05-.97-.15-.28-.1-.52-.25-.72-.44-.2-.19-.34-.41-.44-.67-.1-.26-.15-.55-.15-.86,0-.87.4-1.54,1.22-2,.81-.45,1.98-.7,3.51-.73,0-.28,0-.54.01-.77,0-.23,0-.45,0-.67,0-.57-.11-.98-.34-1.2-.22-.23-.57-.35-1.05-.35-.32,0-.61.04-.86.11-.25.07-.46.17-.62.3.14.14.25.3.31.46.07.16.1.32.1.48,0,.26-.08.48-.24.66s-.38.26-.66.26c-.12,0-.23-.02-.35-.06-.11-.04-.21-.1-.29-.18-.08-.08-.15-.18-.2-.31-.05-.12-.07-.27-.07-.43,0-.26.07-.51.2-.75s.33-.46.6-.65.59-.34.99-.45c.39-.11.86-.17,1.39-.17.43,0,.81.04,1.14.13.33.09.61.24.84.44.23.21.4.48.52.82.12.34.17.76.17,1.27,0,.13,0,.33,0,.62,0,.28,0,.6-.01.95,0,.35,0,.7-.01,1.05,0,.36,0,.67,0,.94s0,.51.02.69c.01.19.04.33.09.44.05.11.12.19.21.24.1.05.23.07.4.07.15,0,.35-.02.59-.06v.7Zm-2.86-3.89c-.65.02-1.17.07-1.57.16-.4.08-.71.21-.93.36-.22.15-.37.34-.45.56-.08.22-.12.47-.12.76,0,.49.1.86.29,1.1.19.24.46.36.8.36.18,0,.39-.04.62-.12.23-.08.45-.22.65-.4.2-.19.37-.43.5-.73s.2-.68.2-1.12v-.92Z"/><path class="cls-2" d="m169.08,58.52h1.2v.76h-4.14v-.76h1.34v-6.53h-1.34v-.76h2.94v1.37h.03c.24-.52.56-.92.96-1.2.41-.28.92-.42,1.56-.42s1.17.15,1.54.45c.37.3.61.77.73,1.4h.03c.24-.61.57-1.07.99-1.38.42-.31.97-.47,1.63-.47.8,0,1.4.22,1.79.66s.58,1.08.58,1.9v4.97h1.29v.76h-4.1v-.76h1.2v-5.24c0-.5-.11-.86-.32-1.1-.21-.24-.52-.35-.91-.35-.29,0-.56.07-.81.2s-.48.34-.67.63c-.19.28-.34.64-.45,1.08-.11.44-.17.96-.17,1.57v3.21h1.2v.76h-4.01v-.76h1.2v-5.25c0-.49-.11-.85-.32-1.09-.21-.24-.52-.35-.91-.35-.28,0-.55.07-.8.2-.25.14-.48.34-.67.63-.19.28-.35.64-.45,1.08s-.16.96-.16,1.57v3.21Z"/><path class="cls-2" d="m196.41,52.44h.04c.26-.51.6-.88,1.01-1.11.42-.23.88-.35,1.39-.35s.97.1,1.4.3c.43.2.8.49,1.12.85.31.37.56.81.73,1.34s.26,1.1.26,1.74c0,.67-.1,1.28-.29,1.81-.19.53-.45.99-.78,1.36-.33.37-.71.66-1.14.86-.43.2-.9.3-1.38.3s-.92-.11-1.33-.33c-.4-.22-.74-.58-1.01-1.07h-.04v5.56h1.43v.76h-4.37v-.76h1.34v-11.7h-1.34v-.76h2.94v1.21Zm4.2,2.8c0-.72-.05-1.31-.14-1.77-.09-.46-.23-.81-.4-1.08s-.38-.44-.62-.53-.5-.14-.78-.14c-.41,0-.76.09-1.04.28-.28.18-.52.43-.7.75-.18.32-.31.7-.39,1.13s-.12.9-.12,1.41.04.97.11,1.35.17.7.3.96c.13.26.27.47.43.63.16.16.32.28.49.36.17.08.33.14.49.16.16.03.31.04.44.04.27,0,.53-.05.77-.14s.44-.27.62-.53c.17-.26.31-.62.41-1.08.1-.46.15-1.06.15-1.8Z"/><path class="cls-2" d="m217.82,59.54c-.18,0-.35-.03-.5-.1-.16-.07-.29-.16-.41-.28-.11-.11-.2-.25-.27-.42-.07-.16-.1-.34-.1-.54s.03-.38.1-.54c.07-.17.15-.31.27-.43s.25-.21.41-.28c.15-.07.32-.1.5-.1s.34.03.49.1c.15.07.28.16.4.27.11.12.21.26.27.42s.1.34.1.54-.03.38-.1.55c-.07.17-.16.31-.27.42-.12.12-.25.21-.41.28-.15.07-.32.1-.49.1Z"/><path class="cls-2" d="m234.8,61.31c-.1.17-.18.35-.22.51s-.07.32-.07.48c0,.25.06.47.18.67s.28.36.5.49c.21.13.47.23.76.3.29.07.62.1.97.1.48,0,.91-.06,1.29-.18.38-.12.7-.28.96-.5s.46-.46.6-.75c.14-.28.21-.59.21-.92,0-.27-.05-.49-.14-.66-.09-.17-.22-.3-.39-.4-.17-.1-.36-.16-.59-.19s-.48-.05-.75-.05c-.2,0-.42,0-.66,0-.24,0-.48,0-.7.01-.23,0-.43,0-.61.01-.18,0-.3,0-.37,0-.34,0-.63-.04-.88-.13-.24-.09-.45-.21-.62-.37-.17-.16-.29-.34-.37-.56-.08-.21-.12-.45-.12-.69,0-.34.07-.69.21-1.06.14-.36.38-.73.7-1.11-.25-.28-.44-.61-.57-.98s-.2-.76-.2-1.18.07-.84.21-1.23c.14-.39.35-.73.62-1.02.27-.29.6-.52,1-.69.39-.17.84-.25,1.35-.25.46,0,.88.07,1.24.22.36.14.67.34.94.59.17-.18.33-.33.49-.45.16-.12.3-.21.44-.28.14-.07.26-.11.38-.14.12-.02.23-.04.32-.04.15,0,.28.02.38.07.11.05.19.11.26.19.07.08.12.17.15.26s.05.2.05.3c0,.2-.06.38-.18.54s-.29.24-.51.24c-.17,0-.33-.06-.49-.18s-.25-.3-.3-.53c-.12.05-.23.11-.33.18s-.21.15-.31.25c.18.26.31.55.41.87.09.31.14.64.14.99,0,.43-.07.85-.21,1.24-.14.39-.35.73-.63,1.02-.27.29-.61.52-1,.69s-.84.25-1.34.25c-.36,0-.68-.04-.98-.13-.3-.09-.56-.21-.8-.37-.15.21-.26.4-.34.59-.08.18-.12.36-.12.52,0,.2.08.37.25.5.17.13.46.2.87.2.07,0,.2,0,.41,0,.21,0,.43,0,.68,0,.25,0,.49,0,.73,0,.24,0,.43,0,.56,0,.42,0,.81.04,1.16.12.35.08.66.21.91.4s.45.44.59.75.21.69.21,1.15c0,.56-.11,1.06-.32,1.51-.21.45-.51.83-.89,1.14-.38.31-.84.56-1.36.72-.52.17-1.1.25-1.72.25-.55,0-1.03-.06-1.45-.18-.42-.12-.77-.28-1.05-.49-.29-.2-.5-.43-.65-.7-.15-.26-.22-.53-.22-.82s.07-.53.2-.78c.14-.25.34-.49.61-.71.11.05.21.1.29.17.08.06.17.13.27.21Zm3.71-7.22c0-.45-.02-.83-.07-1.14-.04-.31-.12-.56-.23-.75-.11-.19-.26-.33-.45-.42-.19-.09-.43-.13-.72-.13s-.53.04-.72.13c-.19.09-.34.23-.46.43s-.2.46-.24.78c-.05.32-.07.71-.07,1.17s.02.84.07,1.15c.04.31.12.56.24.76.11.2.26.34.45.42.19.09.42.13.71.13s.53-.04.73-.13c.19-.09.35-.23.46-.43.11-.2.19-.46.24-.78.05-.32.07-.71.07-1.18Z"/><path class="cls-2" d="m261.98,56.72c-.19.91-.56,1.61-1.1,2.09-.55.48-1.26.73-2.13.73-.6,0-1.14-.11-1.6-.33-.47-.22-.87-.53-1.19-.91-.33-.38-.58-.83-.75-1.34-.17-.51-.26-1.06-.26-1.64s.09-1.15.27-1.68c.18-.53.43-.99.76-1.38s.72-.7,1.18-.93c.46-.23.98-.34,1.55-.34.52,0,.99.1,1.41.29.42.2.77.47,1.06.82.29.35.52.77.67,1.25.16.49.24,1.02.25,1.6h-5.37c0,.11,0,.18,0,.21v.06c0,.74.05,1.35.16,1.81.1.47.25.83.44,1.09s.41.44.67.53c.26.09.55.14.86.14.29,0,.56-.04.82-.12s.49-.21.7-.39.39-.41.55-.7c.16-.29.28-.63.38-1.03.12.01.24.03.36.07.12.03.23.07.34.11Zm-1.68-2.52c-.02-.52-.07-.94-.16-1.27-.08-.32-.2-.58-.34-.76-.14-.18-.31-.31-.5-.37-.19-.07-.41-.1-.64-.1s-.47.04-.68.11c-.21.07-.4.21-.56.4-.17.19-.31.44-.42.76-.11.32-.19.73-.23,1.23h3.53Z"/><rect class="cls-1" x="65.78" y="12.62" width="8.33" height="28.66" rx=".5" ry=".5"/><rect class="cls-1" x="271.64" y="12.63" width="8.51" height="28.66" rx=".5" ry=".5"/><rect class="cls-1" x="119.3" y="12.63" width="8.31" height="28.66" rx=".5" ry=".5"/><rect class="cls-1" x="147.79" y="12.62" width="8.33" height="28.66" rx=".5" ry=".5"/><rect class="cls-1" x="99.83" y="5.63" width="8.33" height="22.32" rx=".5" ry=".5" transform="translate(120.79 -87.21) rotate(90)"/><rect class="cls-1" x="99.83" y="15.79" width="8.33" height="22.32" rx=".5" ry=".5" transform="translate(130.95 -77.05) rotate(90)"/><rect class="cls-1" x="99.83" y="25.96" width="8.33" height="22.32" rx=".5" ry=".5" transform="translate(141.12 -66.88) rotate(90)"/><rect class="cls-1" x="181.07" y="5.63" width="8.33" height="22.32" rx=".5" ry=".5" transform="translate(202.03 -168.45) rotate(90)"/><rect class="cls-1" x="181.07" y="15.79" width="8.33" height="22.32" rx=".5" ry=".5" transform="translate(212.19 -158.29) rotate(90)"/><rect class="cls-1" x="181.07" y="25.96" width="8.33" height="22.32" rx=".5" ry=".5" transform="translate(222.35 -148.12) rotate(90)"/><path class="cls-1" d="m254.69,12.63h14.49c.28,0,.5.22.5.5v13.28c0,.26-.19.48-.45.51-.39.03-.78.05-1.17.05-7.64,0-13.84-6.19-13.88-13.83l.51-.5Z"/><path class="cls-1" d="m143.64,26.96c0,7.73-6.12,14.05-13.81,14.32-.28.01-.52-.23-.52-.51V13.14c0-.28.24-.52.52-.51,7.69.27,13.81,6.57,13.81,14.32Z"/><path class="cls-1" d="m76.17,28.98v11.8c0,.28.22.5.5.5h11.7c.44,0,.67-.54.36-.85l-11.7-11.8c-.31-.32-.86-.09-.86.35Z"/><path class="cls-1" d="m87.81,19.48c0,3.22-2.25,5.95-5.25,6.66-.5.12-1.05.19-1.6.19h-4.28c-.28,0-.5-.22-.5-.5v-12.71c0-.28.22-.5.5-.5h4.28c.55,0,1.1.07,1.6.19,3.01.72,5.25,3.42,5.25,6.66Z"/><rect class="cls-1" x="200.26" y="12.62" width="8.33" height="28.66" rx=".5" ry=".5"/><path class="cls-1" d="m210.66,28.98v11.8c0,.28.22.5.5.5h11.7c.44,0,.67-.54.36-.85l-11.7-11.8c-.31-.32-.86-.09-.86.35Z"/><path class="cls-1" d="m222.3,19.48c0,3.22-2.25,5.95-5.25,6.66-.5.12-1.05.19-1.6.19h-4.28c-.28,0-.5-.22-.5-.5v-12.71c0-.28.22-.5.5-.5h4.28c.55,0,1.1.07,1.6.19,3.01.72,5.25,3.42,5.25,6.66Z"/><rect class="cls-1" x="227.22" y="12.62" width="8.33" height="28.66" rx=".5" ry=".5"/><path class="cls-1" d="m237.62,28.98v11.8c0,.28.22.5.5.5h11.7c.44,0,.67-.54.36-.85l-11.7-11.8c-.31-.32-.86-.09-.86.35Z"/><path class="cls-1" d="m249.26,19.48c0,3.22-2.25,5.95-5.25,6.66-.5.12-1.05.19-1.6.19h-4.28c-.28,0-.5-.22-.5-.5v-12.71c0-.28.22-.5.5-.5h4.28c.55,0,1.1.07,1.6.19,3.01.72,5.25,3.42,5.25,6.66Z"/><path class="cls-1" d="m166.47,26.2c-.09.09-.22.14-.35.14h-7.65c-.28,0-.5-.22-.5-.5v-12.71c0-.28.22-.5.5-.5h4.52c5.9,0,10.11,7.48,3.48,13.57Z"/><path class="cls-1" d="m166.47,41.15c-.09.09-.22.14-.35.14h-7.65c-.28,0-.5-.22-.5-.5v-12.71c0-.28.22-.5.5-.5h4.52c5.9,0,10.11,7.48,3.48,13.57Z"/></svg>