<?xml version="1.0" encoding="UTF-8"?><svg id="Layer_1" xmlns="http://www.w3.org/2000/svg" viewBox="0 0 66.46 75.55"><defs><style>.cls-1{fill:#f90032;stroke-width:0px;}</style></defs><path class="cls-1" d="m52.66,41.78c-1.87-5.5-4.39-10.96-2.42-16.88.17-.53.58-1.6-.32-1.39-3.38.94-6.49,5.19-7.61,10.37-.18.95-.57,1.53-1.37.68-5.8-5.39-10.86-15.78-7.36-24.13.27-.53.05-.69-.4-.59-8.37,1.38-10.11,11.59-8.86,18.56,1.05,4.73,2.88,9.82-.06,14.08-.51.87-.86,1.02-.7-.17.67-5.56-.51-10.28-5.27-13.66-.37-.23-.8-.47-.97.01.07,3.77,1,7.83-1.02,11.29-.84,1.8-2.66,3.28-2.81,5.33-.15,1.26,0,2.3.52,3.4,3.27,7.33,9.01,12.82,17.09,16.21,1.46.64,2.95.53,4.39-.08,8.5-3.25,19.47-13.54,17.2-22.87l-.04-.16Zm-10.47,17.73c-2.26,1.72-4.76,3.14-7.39,4.19-1.03.44-2.16.46-3.19.01-2.36-.97-4.58-2.17-6.69-3.66-.4-.3-.83-.67-.99-1.14-.17-.46-.05-1,.11-1.47,1.05-2.96,2.45-5.7,1.97-8.95-.14-1.34,1.13-.07,1.58.41,1.11,1.06,1.41,2.51,1.58,3.97.14.51.73.18,1.27-.24,2.85-2.1,4.29-7.23,3.76-12.02.04-1.28,1.11-.08,1.67.43,2.3,2.4,2.74,5.61,2.01,8.96-.52,2.18-.99,4.16-.02,6.15.17.52,1.32,2.24,1.3.8-.26-2.1-.32-4.26,1.17-5.96.31-.36.96-.79,1.01,0-.08,1.82.24,3.9,1.4,5.44,1.04,1.46.95,1.92-.41,2.96l-.15.11Z"/></svg>